# xmcd
#
# Track frame offsets:
#	150
#	11980
#	23552
#	36557
#	49480
#	62025
#	77605
#	90350
#	102842
#	115097
#	130307
#	141757
#
# Disc length: 2105 seconds
#
# Revision: 1
# Processed by: cddbd v1.5.2PL0 Copyright (c) Steve Scherf et al.
# Submitted via: audiograbber 1.83.01
#
DISCID=9d08370c
DTITLE=Mads Hove Jeppesen - Guitarland
DYEAR=1900
DGENRE=Country
TTITLE0=GUITARLANDSHUFFLE
TTITLE1=KÅNTRISÅNG
TTITLE2=ERIKA
TTITLE3=HVA' GØR VI HVIS VEJEN SVINGER?
TTITLE4=MEHEIA
TTITLE5=REGGAE 91
TTITLE6=FLIK FLAK
TTITLE7=DAGDRØMMER
TTITLE8=2x28-10
TTITLE9=ALISA
TTITLE10=DENGANG GIK DET JO GODT NOK
TTITLE11=TIDEN GIK?
EXTD=
EXTT0=
EXTT1=
EXTT2=
EXTT3=
EXTT4=
EXTT5=
EXTT6=
EXTT7=
EXTT8=
EXTT9=
EXTT10=
EXTT11=
PLAYORDER=
